0
SECTION
2
HEADER
9
$INSUNITS
70
4
9
$ACADVER
1
AC1014
9
$HANDSEED
5
FFFF
0
ENDSEC
0
SECTION
2
TABLES
0
TABLE
2
VPORT
5
8
100
AcDbSymbolTable
0
ENDTAB
0
TABLE
2
LTYPE
5
5
100
AcDbSymbolTable
70
2
0
LTYPE
5
14
100
AcDbSymbolTableRecord
100
AcDbLinetypeTableRecord
2
BYBLOCK
70
0
0
LTYPE
5
15
100
AcDbSymbolTableRecord
100
AcDbLinetypeTableRecord
2
BYLAYER
70
0
0
ENDTAB
0
TABLE
2
LAYER
5
2
100
AcDbSymbolTable
70
3
0
LAYER
5
50
100
AcDbSymbolTableRecord
100
AcDbLayerTableRecord
2
0
70
0
6
CONTINUOUS
0
LAYER
5
51
100
AcDbSymbolTableRecord
100
AcDbLayerTableRecord
2
CUTOUTS
70
0
62
1
6
CONTINUOUS
0
LAYER
5
52
100
AcDbSymbolTableRecord
100
AcDbLayerTableRecord
2
PERIMETER
70
0
62
5
6
CONTINUOUS
0
ENDTAB
0
TABLE
2
STYLE
5
3
100
AcDbSymbolTable
70
1
0
STYLE
5
11
100
AcDbSymbolTableRecord
100
AcDbTextStyleTableRecord
2
STANDARD
70
0
0
ENDTAB
0
TABLE
2
VIEW
5
6
100
AcDbSymbolTable
0
ENDTAB
0
TABLE
2
UCS
5
7
100
AcDbSymbolTable
0
ENDTAB
0
TABLE
2
APPID
5
9
100
AcDbSymbolTable
70
1
0
APPID
5
12
100
AcDbSymbolTableRecord
100
AcDbRegAppTableRecord
2
ACAD
70
0
0
ENDTAB
0
TABLE
2
DIMSTYLE
5
A
100
AcDbSymbolTable
0
ENDTAB
0
TABLE
2
BLOCK_RECORD
5
1
100
AcDbSymbolTable
70
2
0
BLOCK_RECORD
5
1F
100
AcDbSymbolTableRecord
100
AcDbBlockTableRecord
2
*MODEL_SPACE
0
BLOCK_RECORD
5
1B
100
AcDbSymbolTableRecord
100
AcDbBlockTableRecord
2
*PAPER_SPACE
0
ENDTAB
0
ENDSEC
0
SECTION
2
BLOCKS
0
BLOCK
5
20
100
AcDbEntity
100
AcDbBlockBegin
2
*MODEL_SPACE
0
ENDBLK
5
21
100
AcDbEntity
100
AcDbBlockEnd
0
BLOCK
5
1C
100
AcDbEntity
100
AcDbBlockBegin
2
*PAPER_SPACE
0
ENDBLK
5
1D
100
AcDbEntity
100
AcDbBlockEnd
0
ENDSEC
0
SECTION
2
ENTITIES
0
LINE
5
100
100
AcDbEntity
8
PERIMETER
100
AcDbLine
10
-54.959439632388722
20
79.760741922985446
30
0
11
-74.102519329021476
21
60.716080476556549
31
0
0
LINE
5
101
100
AcDbEntity
8
PERIMETER
100
AcDbLine
10
55.418797985088879
20
79.47627280588901
30
0
11
-54.959439632388715
21
79.760741922985446
31
0
0
LINE
5
102
100
AcDbEntity
8
PERIMETER
100
AcDbLine
10
74.463459431517975
20
60.333193109256285
30
0
11
55.418797985088879
21
79.47627280588901
31
0
0
LINE
5
103
100
AcDbEntity
8
PERIMETER
100
AcDbLine
10
74.463459431517975
20
60.333193109256285
30
0
11
74.102406101812221
21
-79.760855150194715
31
0
0
LINE
5
104
100
AcDbEntity
8
PERIMETER
100
AcDbLine
10
74.102406101812221
20
-79.760855150194715
30
0
11
63.293547791430989
21
-79.732998333065296
31
0
0
SPLINE
5
105
100
AcDbEntity
8
PERIMETER
100
AcDbSpline
70
1064
71
3
72
29
73
25
74
0
42
0.000000001
43
0.0000000001
44
0.0000000001
40
-49.560121072233592
40
-49.560121072233592
40
-49.560121072233592
40
-49.560121072233592
40
-49.559658407962715
40
-49.559658407962715
40
-49.559658407962715
40
-48.887616490667149
40
-48.887616490667149
40
-48.887616490667149
40
-48.221034116081427
40
-48.221034116081427
40
-48.221034116081427
40
-46.782640857891003
40
-46.782640857891003
40
-46.782640857891003
40
-43.464414631860748
40
-43.464414631860748
40
-43.464414631860748
40
-36.221877483401748
40
-36.221877483401748
40
-36.221877483401748
40
-32.456871337734874
40
-32.456871337734874
40
-32.456871337734874
40
-32.45067812613982
40
-32.45067812613982
40
-32.45067812613982
40
-32.45067812613982
10
0.10818048297891347
20
63.102000739543634
30
0
10
0.10944684030038898
20
63.102064968432273
30
0
10
0.11071319762191112
20
63.102129197320913
30
0
10
0.1119795549434266
20
63.102193426209553
30
0
10
1.945234144569955
20
63.19517500643493
30
0
10
3.7607387457846473
20
63.059468621062642
30
0
10
5.557927798203659
20
62.68695069311697
30
0
10
7.3405167583481878
20
62.317459044523808
30
0
10
9.0530636692944668
20
61.725750257355124
30
0
10
10.698263177476687
20
60.944355751699817
30
0
10
14.24836871836807
20
59.2582180216843
30
0
10
17.382144882086813
20
56.736347806135498
30
0
10
20.108243133990097
20
53.901653773158102
30
0
10
26.397099987370428
20
47.362276483994059
30
0
10
31.544489878990369
20
38.098507723686396
30
0
10
35.708699948935859
20
28.589035550754787
30
0
10
44.797696307451261
20
7.8332243646225832
30
0
10
51.340308009620806
20
-19.049796697529111
30
0
10
56.197636346239257
20
-42.69577992703212
30
0
10
58.722665378698281
20
-54.987885796305278
30
0
10
60.940085959482182
20
-67.341823657907568
30
0
10
63.281991370170545
20
-79.672152802233256
30
0
10
63.285843510590695
20
-79.692434645843932
30
0
10
63.289695651010838
20
-79.712716489454621
30
0
10
63.293547791430989
20
-79.732998333065296
30
0
0
SPLINE
5
106
100
AcDbEntity
8
PERIMETER
100
AcDbSpline
70
1064
71
3
72
29
73
25
74
0
42
0.000000001
43
0.0000000001
44
0.0000000001
40
-0.00038039553056330288
40
-0.00038039553056330288
40
-0.00038039553056330288
40
-0.00038039553056330288
40
0
40
0
40
0
40
0.85440243050538756
40
0.85440243050538756
40
0.85440243050538756
40
1.7830484208130504
40
1.7830484208130504
40
1.7830484208130504
40
3.2425835517003194
40
3.2425835517003194
40
3.2425835517003194
40
6.2620744984072179
40
6.2620744984072179
40
6.2620744984072179
40
14.250706026912477
40
14.250706026912477
40
14.250706026912477
40
15.165269112475968
40
15.165269112475968
40
15.165269112475968
40
15.169463536820489
40
15.169463536820489
40
15.169463536820489
40
15.169463536820489
10
0.10818048297864369
20
63.10200073954352
30
0
10
0.10691412565627334
20
63.102064968432231
30
0
10
0.10564776833368428
20
63.102129197320984
30
0
10
0.10438141101108966
20
63.102193426209737
30
0
10
-2.7303992304533842
20
63.2459718110319
30
0
10
-5.4852692183002443
20
62.841157002404159
30
0
10
-8.1636587300586942
20
61.900802150402981
30
0
10
-11.074785011345366
20
60.878735826077069
30
0
10
-13.73083756329692
20
59.281348900475514
30
0
10
-16.14035061868033
20
57.349879604557721
30
0
10
-19.927322238855947
20
54.31423744750893
30
0
10
-23.186258569816989
20
50.385807384831793
30
0
10
-25.920425989274371
20
46.377298474142322
30
0
10
-31.576893169085828
20
38.084463539478179
30
0
10
-36.263031894333324
20
27.58800345669426
30
0
10
-40.124626972077991
20
16.931613201896315
30
0
10
-50.341183975896229
20
-11.261818864694595
30
0
10
-56.867823986644545
20
-46.413158747096588
30
0
10
-61.368948973385109
20
-70.615651152214639
30
0
10
-61.884230431785838
20
-73.386313068997509
30
0
10
-62.159368087644381
20
-74.900605375716168
30
0
10
-63.003742313331763
20
-79.346306757890076
30
0
10
-63.007614717436873
20
-79.366695291503163
30
0
10
-63.011487121541983
20
-79.38708382511625
30
0
10
-63.015359525647114
20
-79.407472358729351
30
0
0
LINE
5
107
100
AcDbEntity
8
PERIMETER
100
AcDbLine
10
-63.015359525647099
20
-79.407472358729336
30
0
11
-74.463572658727159
21
-79.377967782894501
31
0
0
LINE
5
108
100
AcDbEntity
8
PERIMETER
100
AcDbLine
10
-74.102519329021476
20
60.716080476556542
30
0
11
-74.463572658727159
21
-79.377967782894501
31
0
0
ENDSEC
0
SECTION
2
OBJECTS
0
DICTIONARY
5
C
100
AcDbDictionary
3
ACAD_GROUP
350
D
3
ACAD_MLINESTYLE
350
17
0
DICTIONARY
5
D
100
AcDbDictionary
0
DICTIONARY
5
1A
330
C
100
AcDbDictionary
0
DICTIONARY
5
17
100
AcDbDictionary
0
ENDSEC
0
EOF
